<svg width="101" height="21" viewBox="0 0 101 21" fill="none" xmlns="http://www.w3.org/2000/svg">
<path d="M80.7983 13.2273V12.7287C80.7983 12.384 80.8691 12.0685 81.0107 11.7823C81.1553 11.493 81.3646 11.2622 81.6385 11.0898C81.9155 10.9144 82.2509 10.8267 82.6449 10.8267C83.045 10.8267 83.3804 10.9144 83.6513 11.0898C83.9221 11.2622 84.1268 11.493 84.2653 11.7823C84.4038 12.0685 84.473 12.384 84.473 12.7287V13.2273C84.473 13.572 84.4022 13.889 84.2607 14.1783C84.1222 14.4645 83.916 14.6953 83.642 14.8707C83.3712 15.0431 83.0388 15.1293 82.6449 15.1293C82.2448 15.1293 81.9078 15.0431 81.6339 14.8707C81.36 14.6953 81.1522 14.4645 81.0107 14.1783C80.8691 13.889 80.7983 13.572 80.7983 13.2273ZM81.7401 12.7287V13.2273C81.7401 13.5135 81.8078 13.7705 81.9432 13.9982C82.0786 14.2229 82.3125 14.3352 82.6449 14.3352C82.968 14.3352 83.1958 14.2229 83.3281 13.9982C83.4635 13.7705 83.5312 13.5135 83.5312 13.2273V12.7287C83.5312 12.4425 83.4666 12.187 83.3374 11.9624C83.2081 11.7346 82.9773 11.6207 82.6449 11.6207C82.3217 11.6207 82.0894 11.7346 81.9478 11.9624C81.8093 12.187 81.7401 12.4425 81.7401 12.7287ZM76.0895 7.81676V7.31818C76.0895 6.97348 76.1603 6.65803 76.3018 6.3718C76.4465 6.0825 76.6558 5.85168 76.9297 5.67933C77.2067 5.50391 77.5421 5.41619 77.9361 5.41619C78.3362 5.41619 78.6716 5.50391 78.9425 5.67933C79.2133 5.85168 79.418 6.0825 79.5565 6.3718C79.695 6.65803 79.7642 6.97348 79.7642 7.31818V7.81676C79.7642 8.16146 79.6934 8.47846 79.5518 8.76776C79.4134 9.05398 79.2071 9.2848 78.9332 9.46023C78.6624 9.63258 78.33 9.71875 77.9361 9.71875C77.536 9.71875 77.199 9.63258 76.9251 9.46023C76.6512 9.2848 76.4434 9.05398 76.3018 8.76776C76.1603 8.47846 76.0895 8.16146 76.0895 7.81676ZM77.0312 7.31818V7.81676C77.0312 8.10298 77.099 8.35997 77.2344 8.58771C77.3698 8.81238 77.6037 8.92472 77.9361 8.92472C78.2592 8.92472 78.487 8.81238 78.6193 8.58771C78.7547 8.35997 78.8224 8.10298 78.8224 7.81676V7.31818C78.8224 7.03196 78.7578 6.77651 78.6286 6.55185C78.4993 6.3241 78.2685 6.21023 77.9361 6.21023C77.6129 6.21023 77.3806 6.3241 77.239 6.55185C77.1005 6.77651 77.0312 7.03196 77.0312 7.31818ZM76.4403 15L82.9403 5.54545H83.9929L77.4929 15H76.4403Z" fill="#4D00FF"/>
<path d="M42.0909 15.6477V16.5852H35.9545V15.6477H42.0909ZM41.6307 6.27273V7.21023H35.7159V6.27273H41.6307ZM40.3011 11.2841V11.6165L36.0909 16.5852H35.4773V15.6989L39.1335 11.446L35.4773 7.17614V6.27273H36.0909L40.3011 11.2841Z" fill="#4D00FF"/>
<path d="M18.3239 14.1364C17.7784 14.1307 17.3026 13.983 16.8963 13.6932C16.4901 13.4006 16.1747 12.9986 15.9503 12.4872C15.7259 11.9759 15.6136 11.3892 15.6136 10.7273C15.6136 10.071 15.7315 9.49148 15.9673 8.98864C16.206 8.48295 16.5341 8.08665 16.9517 7.79972C17.3693 7.51278 17.8494 7.36932 18.392 7.36932C18.7898 7.36932 19.1335 7.44602 19.4233 7.59943C19.7131 7.75 19.9588 7.96023 20.1605 8.23011C20.3651 8.5 20.5369 8.80966 20.6761 9.15909H21.0682L21.2216 10.7102L22.0739 14H21.1364L20.3352 10.7102C20.2926 10.5028 20.2273 10.2614 20.1392 9.9858C20.0511 9.71023 19.9332 9.44176 19.7855 9.1804C19.6378 8.91903 19.4489 8.70312 19.2188 8.53267C18.9915 8.35937 18.7159 8.27273 18.392 8.27273C18.0455 8.27273 17.7386 8.37784 17.4716 8.58807C17.2045 8.7983 16.9957 9.08949 16.8452 9.46165C16.6946 9.83381 16.6193 10.2614 16.6193 10.7443C16.6193 11.2159 16.6903 11.6406 16.8324 12.0185C16.9744 12.3935 17.1733 12.6903 17.429 12.9091C17.6847 13.125 17.983 13.233 18.3239 13.233C18.6392 13.233 18.9134 13.1463 19.1463 12.973C19.3793 12.7969 19.5753 12.5767 19.7344 12.3125C19.8935 12.0455 20.0213 11.7713 20.1179 11.4901C20.2173 11.206 20.2898 10.9574 20.3352 10.7443L21.0511 7.45455H21.9886L21.2216 10.7443L21.0682 12.3466H20.7273C20.5795 12.6989 20.3949 13.0114 20.1733 13.2841C19.9545 13.554 19.6918 13.7642 19.3849 13.9148C19.081 14.0653 18.7273 14.1392 18.3239 14.1364Z" fill="white"/>
<path d="M57.9659 7.94886C58.2727 7.94886 58.554 7.99432 58.8097 8.08523C59.0682 8.1733 59.3011 8.28977 59.5085 8.43466C59.7188 8.5767 59.9034 8.72727 60.0625 8.88636C60.1648 8.98011 60.2585 9.0767 60.3438 9.17614C60.4318 9.27557 60.5142 9.37216 60.5909 9.46591C60.6591 9.37216 60.7315 9.27983 60.8082 9.18892C60.8849 9.09801 60.983 8.99716 61.1023 8.88636C61.3409 8.64773 61.6349 8.43182 61.9844 8.23864C62.3366 8.04545 62.7472 7.94886 63.2159 7.94886C63.6477 7.94886 64.0398 8.05398 64.392 8.2642C64.7472 8.47159 65.0284 8.75284 65.2358 9.10795C65.446 9.46023 65.5511 9.85227 65.5511 10.2841C65.5511 10.6108 65.4901 10.9176 65.3679 11.2045C65.2486 11.4886 65.0824 11.7386 64.8693 11.9545C64.6563 12.1676 64.4077 12.3352 64.1236 12.4574C63.8423 12.5767 63.5398 12.6364 63.2159 12.6364C62.9034 12.6364 62.6165 12.5923 62.3551 12.5043C62.0966 12.4134 61.8622 12.2983 61.652 12.1591C61.4446 12.017 61.2614 11.8693 61.1023 11.7159C61 11.6136 60.9063 11.5128 60.821 11.4134C60.7358 11.3111 60.6591 11.2131 60.5909 11.1193C60.5142 11.2131 60.4318 11.3111 60.3438 11.4134C60.2585 11.5128 60.1648 11.6136 60.0625 11.7159C59.9034 11.8693 59.7188 12.017 59.5085 12.1591C59.3011 12.2983 59.0682 12.4134 58.8097 12.5043C58.554 12.5923 58.2727 12.6364 57.9659 12.6364C57.5284 12.6364 57.1321 12.5312 56.777 12.321C56.4219 12.1108 56.1392 11.8281 55.929 11.473C55.7188 11.1179 55.6136 10.7216 55.6136 10.2841C55.6136 9.96023 55.6733 9.65767 55.7926 9.37642C55.9148 9.09233 56.0824 8.84375 56.2955 8.63068C56.5114 8.41761 56.7614 8.25142 57.0455 8.1321C57.3324 8.00994 57.6392 7.94886 57.9659 7.94886ZM56.5852 10.2841C56.5852 10.5398 56.6463 10.7727 56.7685 10.983C56.8935 11.1903 57.0597 11.3565 57.267 11.4815C57.4773 11.6037 57.7102 11.6648 57.9659 11.6648C58.2472 11.6648 58.5043 11.6009 58.7372 11.473C58.9702 11.3452 59.1847 11.1875 59.3807 11C59.5085 10.8722 59.6207 10.7486 59.7173 10.6293C59.8139 10.5099 59.9006 10.3949 59.9773 10.2841C59.9006 10.1818 59.8153 10.0724 59.7216 9.95597C59.6307 9.83665 59.517 9.71307 59.3807 9.58523C59.1932 9.39773 58.9801 9.24006 58.7415 9.11222C58.5057 8.98437 58.2472 8.92045 57.9659 8.92045C57.7102 8.92045 57.4773 8.98295 57.267 9.10795C57.0597 9.23011 56.8935 9.39489 56.7685 9.60227C56.6463 9.80682 56.5852 10.0341 56.5852 10.2841ZM64.5795 10.2841C64.5795 10.0341 64.517 9.80682 64.392 9.60227C64.2699 9.39489 64.1051 9.23011 63.8977 9.10795C63.6932 8.98295 63.4659 8.92045 63.2159 8.92045C63.0227 8.92045 62.8409 8.95028 62.6705 9.00994C62.5 9.06676 62.3409 9.14631 62.1932 9.24858C62.0455 9.34801 61.9091 9.46023 61.7841 9.58523C61.6307 9.73011 61.5028 9.87074 61.4006 10.0071C61.3011 10.1406 61.2301 10.233 61.1875 10.2841C61.2642 10.3949 61.3509 10.5099 61.4474 10.6293C61.544 10.7486 61.6563 10.8722 61.7841 11C61.9801 11.1875 62.1946 11.3452 62.4276 11.473C62.6634 11.6009 62.9261 11.6648 63.2159 11.6648C63.4659 11.6648 63.6932 11.6037 63.8977 11.4815C64.1051 11.3565 64.2699 11.1903 64.392 10.983C64.517 10.7727 64.5795 10.5398 64.5795 10.2841Z" fill="white"/>
</svg>
