<svg width="531" height="514" viewBox="0 0 531 514" fill="none" xmlns="http://www.w3.org/2000/svg">
<path fill-rule="evenodd" clip-rule="evenodd" d="M0 20.5343C0 9.19351 9.19354 0 20.5343 0H510.278C521.619 0 530.813 9.19354 530.813 20.5343V323.602V368.353V448.726V449.702V493.476C530.813 504.003 522.892 512.68 512.684 513.871C502.143 513.872 491.18 513.869 479.944 513.865C346.585 513.798 337.039 513.765 335.18 513.235C332.318 512.406 328.788 510.849 326.448 509.39C325.341 508.694 305.579 495.769 282.538 480.689C259.497 465.609 239.735 452.749 238.607 452.153C237.04 451.31 234.833 450.404 232.69 449.702H20.5344C9.19357 449.702 0 440.509 0 429.168V20.5343Z" fill="#16121C"/>
</svg>
