<svg width="26" height="43" viewBox="0 0 26 43" fill="none" xmlns="http://www.w3.org/2000/svg">
<path fill-rule="evenodd" clip-rule="evenodd" d="M6.03251 17.5094C6.06301 17.5133 6.09375 17.5152 6.12451 17.5149L6.69297 17.5094C6.72389 17.5091 6.75476 17.5066 6.78533 17.502L7.29532 17.4254C7.31895 17.4219 7.34237 17.4171 7.36549 17.411L7.88613 17.2742C7.91682 17.2661 7.94689 17.2559 7.97611 17.2435L8.4808 17.0301C8.50745 17.0189 8.53333 17.0059 8.55828 16.9912L8.978 16.745C9.00436 16.7295 9.02962 16.7123 9.0536 16.6933L9.37236 16.4417C9.38746 16.4297 9.40203 16.4172 9.41603 16.404L9.72413 16.114C9.74524 16.0941 9.76502 16.0729 9.78336 16.0505L10.0649 15.7057C10.0841 15.6823 10.1016 15.6575 10.1174 15.6317L10.3246 15.2924C10.3357 15.2742 10.346 15.2555 10.3553 15.2363L10.5519 14.8314C10.5669 14.8004 10.5795 14.7684 10.5896 14.7355L10.7117 14.336C10.7197 14.3102 10.726 14.2838 10.7307 14.2572L10.7945 13.8961C10.7985 13.8732 10.8013 13.8502 10.803 13.8271L10.8295 13.4495C10.8314 13.4227 10.8317 13.3958 10.8303 13.3689L10.8196 13.161C10.8188 13.1442 10.8173 13.1275 10.8152 13.1108L10.7886 12.9028C10.7869 12.8897 10.7849 12.8767 10.7824 12.8637L10.7452 12.6668C10.7437 12.6588 10.7421 12.6509 10.7403 12.6431L10.7031 12.4789C10.6969 12.4516 10.689 12.4248 10.6794 12.3985L10.5679 12.0921C10.5574 12.0634 10.545 12.0354 10.5307 12.0084L10.3713 11.7074C10.3566 11.6795 10.3398 11.6527 10.3212 11.6272L10.0981 11.3208C10.0797 11.2955 10.0595 11.2715 10.0377 11.249L9.80925 11.0138C9.78495 10.9887 9.75871 10.9656 9.73079 10.9447L9.49702 10.7696C9.47811 10.7555 9.45846 10.7423 9.43816 10.7303L9.30005 10.6482C9.28846 10.6413 9.27667 10.6348 9.26469 10.6286L9.13717 10.5629C9.11002 10.549 9.08194 10.5369 9.05312 10.5268L8.81936 10.4447C8.80032 10.438 8.78098 10.4322 8.76142 10.4272L8.52235 10.3671C8.48697 10.3581 8.45092 10.3522 8.41456 10.3492L8.28175 10.3382C8.27271 10.3375 8.26366 10.3369 8.2546 10.3366L8.12178 10.3311C8.09679 10.3301 8.07175 10.3304 8.04679 10.3322L7.81836 10.3486C7.78698 10.3509 7.7558 10.3554 7.72505 10.362L7.52317 10.4058C7.49606 10.4117 7.46935 10.4193 7.44319 10.4285L7.24131 10.4996C7.21269 10.5097 7.18481 10.5217 7.15784 10.5356L6.99844 10.6177C6.97193 10.6313 6.94638 10.6468 6.92194 10.6638L6.7732 10.7678C6.75648 10.7795 6.7403 10.792 6.72473 10.8051L6.57596 10.931C6.53996 10.9614 6.50731 10.9956 6.47855 11.033L6.35637 11.1916C6.34532 11.206 6.33486 11.2208 6.32502 11.236L6.22939 11.3837C6.21288 11.4092 6.19813 11.4359 6.18525 11.4634L6.11618 11.6111C6.1045 11.6361 6.09438 11.6618 6.08589 11.6881L6.05933 11.7702C6.05331 11.7888 6.04812 11.8076 6.04377 11.8267L6.02251 11.9197C6.01822 11.9384 6.01475 11.9574 6.01211 11.9764L5.99992 12.0643L5.98939 12.1518C5.98616 12.1784 5.98454 12.2052 5.98454 12.2319V12.3906C5.98454 12.4235 5.98698 12.4563 5.99184 12.4889L6.0131 12.6311C6.06735 12.9943 6.40571 13.2447 6.76885 13.1904C7.13198 13.1362 7.38238 12.7978 7.32813 12.4347L7.31417 12.3412V12.2722L7.31926 12.2302L7.32515 12.1878L7.33343 12.1515L7.33821 12.1367L7.3704 12.0679L7.42646 11.9813L7.48879 11.9003L7.56004 11.8401L7.64698 11.7793L7.72608 11.7386L7.84571 11.6964L7.96072 11.6715L8.10456 11.6611L8.18625 11.6645L8.25087 11.6698L8.40741 11.7092L8.56933 11.7661L8.63809 11.8015L8.72833 11.8551L8.89177 11.9775L9.05095 12.1415L9.2185 12.3716L9.33419 12.5901L9.41568 12.8139L9.44093 12.9253L9.4722 13.0909L9.49305 13.2541L9.50033 13.3965L9.47904 13.6991L9.42839 13.986L9.3332 14.2971L9.17317 14.6267L9.0064 14.8998L8.78113 15.1756L8.52574 15.416L8.26564 15.6214L7.92297 15.8224L7.50218 16.0003L7.06232 16.1159L6.63373 16.1803L6.1579 16.1849L5.61348 16.1142L5.09044 15.9771L4.61984 15.7861L4.0635 15.4661L3.48529 15.011L2.95493 14.4545C2.70164 14.1887 2.28082 14.1785 2.01502 14.4318C1.74921 14.6851 1.73907 15.1059 1.99237 15.3717L2.5555 15.9627C2.57732 15.9856 2.60074 16.0069 2.62559 16.0264L3.27905 16.5408C3.3043 16.5606 3.33096 16.5787 3.35882 16.5947L3.99631 16.9613C4.02249 16.9763 4.04966 16.9896 4.07765 17.001L4.63018 17.2253C4.65676 17.2361 4.68402 17.2451 4.71177 17.2524L5.31741 17.4111C5.34468 17.4182 5.37236 17.4236 5.40031 17.4273L6.03251 17.5094Z" fill="white"/>
<path fill-rule="evenodd" clip-rule="evenodd" d="M1.72907 41.5963C1.79435 41.9577 2.14017 42.1976 2.50148 42.1324L6.04502 41.4922C6.07377 41.487 6.10214 41.4799 6.12996 41.471L9.71065 40.3219C9.73284 40.3148 9.75464 40.3065 9.77597 40.2971L11.5982 39.4927C11.6128 39.4863 11.6271 39.4794 11.6411 39.4719L13.2721 38.6074C13.292 38.5969 13.3113 38.5853 13.33 38.5729L16.1563 36.6851C16.1784 36.6703 16.1996 36.6543 16.2198 36.637L18.3448 34.8149C18.3651 34.7975 18.3844 34.7788 18.4025 34.7591L20.416 32.5595C20.4339 32.5398 20.4507 32.5192 20.4662 32.4975L22.2406 30.0189C22.2568 29.9962 22.2716 29.9725 22.2849 29.9479L23.5918 27.5294C23.6044 27.5062 23.6155 27.4822 23.6252 27.4576L24.5868 25.0227C24.5959 24.9997 24.6037 24.9763 24.6101 24.9525L25.2423 22.6215C25.2483 22.5994 25.2532 22.5769 25.2569 22.5543L25.5969 20.4641C25.6008 20.4402 25.6034 20.4161 25.6046 20.392L25.7215 18.1541C25.7228 18.1293 25.7227 18.1046 25.7212 18.0799L25.5831 15.7599C25.5815 15.7337 25.5784 15.7076 25.5738 15.6818L25.1541 13.3454C25.1493 13.3186 25.1428 13.2921 25.1348 13.266L24.4866 11.1758C24.4792 11.1521 24.4705 11.1287 24.4605 11.1059L23.6955 9.36042C23.6847 9.33585 23.6725 9.31196 23.6588 9.28888L22.591 7.4832C22.5763 7.45837 22.56 7.43451 22.5422 7.41179L21.1928 5.6882C21.1751 5.66562 21.156 5.6442 21.1356 5.62409L19.834 4.3437C19.8137 4.32376 19.7922 4.30515 19.7695 4.28796L18.2979 3.17173C18.2814 3.15921 18.2643 3.14746 18.2467 3.13654L17.4179 2.6222C17.4034 2.61314 17.3884 2.60466 17.3732 2.59676L16.4754 2.13166C16.4548 2.12099 16.4336 2.11141 16.412 2.10295L14.7917 1.46825C14.7711 1.46016 14.75 1.45312 14.7287 1.44714L13.7724 1.17902C13.7547 1.17405 13.7368 1.16982 13.7188 1.16634L12.8103 0.991257C12.792 0.987743 12.7737 0.984997 12.7552 0.983021L11.9371 0.895462C11.9247 0.894138 11.9123 0.893162 11.8999 0.892532L11.0339 0.848763C11.0087 0.847488 10.9835 0.847649 10.9583 0.849251L9.40698 0.947739C9.37758 0.949608 9.34834 0.953423 9.31945 0.959167L7.94347 1.23276C7.92175 1.23708 7.90026 1.24248 7.87908 1.24894L7.16188 1.4678C7.14567 1.47275 7.12965 1.47831 7.11386 1.48449L6.38603 1.76903C6.36591 1.77689 6.34618 1.78574 6.32692 1.79552L5.12093 2.40836C5.0952 2.42143 5.07035 2.43617 5.04653 2.45247L4.12746 3.08171C4.10634 3.09616 4.08608 3.11182 4.06678 3.12862L3.17958 3.90013C3.15862 3.91835 3.13883 3.93788 3.12031 3.95858L2.31279 4.86143C2.29473 4.88162 2.27792 4.90289 2.26246 4.92513L1.64618 5.81154C1.62914 5.83606 1.61376 5.8617 1.60016 5.88829L1.0264 7.00999C1.01499 7.03231 1.00485 7.05525 0.996023 7.0787L0.767586 7.68607C0.761986 7.70095 0.756923 7.71604 0.752405 7.73129L0.561152 8.37696C0.55442 8.39969 0.548908 8.42277 0.54464 8.44608L0.353355 9.49117C0.349076 9.51455 0.346053 9.53814 0.344301 9.56184L0.301819 10.1364C0.300778 10.1504 0.300186 10.1645 0.300043 10.1787L0.294712 10.7039C0.294492 10.7256 0.29533 10.7472 0.297222 10.7688L0.376922 11.6771C0.379367 11.705 0.383569 11.7327 0.389503 11.76L0.591384 12.6902C0.596053 12.7117 0.601788 12.733 0.608566 12.7539L0.757337 13.2135C0.762457 13.2293 0.768169 13.245 0.77446 13.2604L0.944455 13.6762C0.949812 13.6893 0.955586 13.7022 0.961769 13.715L1.17958 14.1637C1.1863 14.1775 1.19349 14.1911 1.20115 14.2044L1.42429 14.5929C1.43608 14.6135 1.44894 14.6333 1.46284 14.6525L1.93568 15.3036C2.15142 15.6007 2.56716 15.6666 2.86425 15.4509C3.16135 15.2352 3.2273 14.8194 3.01156 14.5223L2.55959 13.8999L2.36563 13.5622L2.16718 13.1534L2.01466 12.7803L1.88375 12.3759L1.69779 11.519L1.6246 10.6849L1.62938 10.2133L1.66768 9.69547L1.84613 8.72047L2.0205 8.13181L2.22729 7.582L2.76348 6.53373L3.33094 5.71753L4.08355 4.87608L4.91027 4.15715L5.76192 3.57408L6.90036 2.99557L7.57428 2.73211L8.23537 2.53037L9.53537 2.27189L11.0047 2.17861L11.8141 2.21952L12.586 2.30213L13.44 2.46672L14.3377 2.71841L15.8947 3.3283L16.7387 3.76552L17.5192 4.2499L18.932 5.32152L20.1724 6.54176L21.4686 8.19732L22.4939 9.93105L23.2277 11.6054L23.8527 13.6208L24.2582 15.8782L24.3918 18.1218L24.2787 20.2864L23.95 22.3068L23.3366 24.5687L22.4031 26.9323L21.1351 29.279L19.4083 31.6911L17.4488 33.8317L15.3846 35.6016L12.6196 37.4484L11.0395 38.286L9.27106 39.0666L5.76546 40.1915L2.26509 40.8239C1.90378 40.8892 1.66379 41.235 1.72907 41.5963Z" fill="white"/>
</svg>
