<svg width="128" height="128" viewBox="0 0 128 128" fill="none" xmlns="http://www.w3.org/2000/svg">
<path d="M59.481 8.2777C60.8186 4.05138 61.4875 1.93823 62.4808 1.35487C63.4187 0.804099 64.5813 0.804099 65.5192 1.35487C66.5125 1.93823 67.1814 4.05139 68.519 8.27771L80.0866 44.8247C80.3526 45.6654 80.4857 46.0857 80.717 46.4355C80.9396 46.7721 81.2279 47.0604 81.5645 47.283C81.9143 47.5143 82.3346 47.6474 83.1753 47.9134L119.722 59.481C123.949 60.8186 126.062 61.4875 126.645 62.4808C127.196 63.4187 127.196 64.5813 126.645 65.5192C126.062 66.5125 123.949 67.1814 119.722 68.519L83.1753 80.0866C82.3346 80.3526 81.9143 80.4857 81.5645 80.717C81.2279 80.9396 80.9396 81.2279 80.717 81.5645C80.4857 81.9143 80.3526 82.3346 80.0866 83.1753L68.519 119.722C67.1814 123.949 66.5125 126.062 65.5192 126.645C64.5813 127.196 63.4187 127.196 62.4808 126.645C61.4875 126.062 60.8186 123.949 59.481 119.722L47.9134 83.1753C47.6474 82.3346 47.5143 81.9143 47.283 81.5645C47.0604 81.2279 46.7721 80.9396 46.4355 80.717C46.0857 80.4857 45.6654 80.3526 44.8247 80.0866L8.2777 68.519C4.05138 67.1814 1.93823 66.5125 1.35487 65.5192C0.804099 64.5813 0.804099 63.4187 1.35487 62.4808C1.93823 61.4875 4.05139 60.8186 8.27771 59.481L44.8247 47.9134C45.6654 47.6474 46.0857 47.5143 46.4355 47.283C46.7721 47.0604 47.0604 46.7721 47.283 46.4355C47.5143 46.0857 47.6474 45.6654 47.9134 44.8247L59.481 8.2777Z" fill="white"/>
</svg>
