<svg width="150" height="150" viewBox="0 0 150 150" fill="none" xmlns="http://www.w3.org/2000/svg">
<path d="M75 0L77.9063 55.7178L97.1066 3.33204L83.4607 57.4311L117.249 13.0321L88.2634 60.7055L133.637 28.2383L91.8875 65.25L144.816 47.5994L94.0111 70.6608L149.79 69.3952L94.4455 76.4572L148.12 91.6891L93.152 82.1242L139.952 112.5L90.2457 87.1581L126.013 129.979L85.9847 91.1117L107.541 142.573L80.7477 93.6337L86.1782 149.162L75 94.5L63.8218 149.162L69.2523 93.6337L42.4587 142.573L64.0153 91.1117L23.987 129.979L59.7543 87.1581L10.0481 112.5L56.848 82.1242L1.88041 91.6891L55.5545 76.4572L0.209717 69.3952L55.9889 70.6608L5.18447 47.5994L58.1125 65.25L16.3626 28.2383L61.7366 60.7055L32.751 13.0321L66.5393 57.4311L52.8934 3.33204L72.0937 55.7178L75 0Z" fill="white"/>
</svg>
