<svg width="132" height="132" viewBox="0 0 132 132" fill="none" xmlns="http://www.w3.org/2000/svg">
<path d="M53.0028 48.6629L66 7.59875L78.9972 48.6629C79.0081 48.6971 79.0199 48.7355 79.0329 48.7776C79.1591 49.1861 79.3929 49.9427 79.835 50.6112C80.2431 51.2284 80.7716 51.7569 81.3888 52.165C82.0573 52.6071 82.8139 52.8409 83.2224 52.9671C83.2645 52.9801 83.3029 52.9919 83.3371 53.0028L124.401 66L83.3371 78.9972C83.3029 79.0081 83.2645 79.0199 83.2223 79.0329C82.8139 79.1591 82.0572 79.3929 81.3888 79.835C80.7716 80.2431 80.2431 80.7716 79.835 81.3888C79.3929 82.0573 79.1591 82.8139 79.0329 83.2224C79.0199 83.2645 79.0081 83.3029 78.9972 83.3371L66 124.401L53.0028 83.3371C52.9919 83.3029 52.9801 83.2645 52.967 83.2223C52.8409 82.8139 52.6071 82.0572 52.165 81.3888C51.7569 80.7716 51.2284 80.2431 50.6112 79.835C49.9427 79.3929 49.1861 79.1591 48.7776 79.0329C48.7355 79.0199 48.6971 79.0081 48.6629 78.9972L7.59875 66L48.6629 53.0028C48.6971 52.9919 48.7355 52.9801 48.7776 52.9671C49.1861 52.8409 49.9427 52.6071 50.6112 52.165C51.2284 51.7569 51.7569 51.2284 52.165 50.6112C52.6071 49.9427 52.8409 49.1861 52.9671 48.7776C52.9801 48.7355 52.9919 48.6971 53.0028 48.6629Z" stroke="white" stroke-width="7"/>
</svg>
